ISO-10303-21;
HEADER;
/* Generated by software containing ST-Developer
 * from STEP Tools, Inc. (www.steptools.com) 
 */
/* OPTION: using custom renumber hook */

FILE_DESCRIPTION(
/* description */ ('STEP AP242 Edition 2',
'CAx-IF Rec.Pracs.---Representation and Presentation of Product Manufa
cturing Information (PMI)---4.0---2014-10-13',
'CAx-IF Rec.Pracs.---3D Tessellated Geometry---0.4---2014-09-14','2;1',
'CAx-IF Rec.Pracs.---User Defined Attributes---1.5---2016-08-15'),
/* implementation_level */ '2;1');

FILE_NAME(
/* name */ 'Part Studio 3',
/* time_stamp */ '2026-05-29T01:14:11Z',
/* author */ (''),
/* organization */ (''),
/* preprocessor_version */ 'ST-DEVELOPER v20',
/* originating_system */ 'ONSHAPE BY PTC INC, 1.215',
/* authorisation */ '  ');

FILE_SCHEMA (('AP242_MANAGED_MODEL_BASED_3D_ENGINEERING_MIM_LF { 1 0 10303 442 3 1 4 }'));
ENDSEC;

DATA;
#10=SHAPE_REPRESENTATION_RELATIONSHIP('','',#239,#11);
#11=ADVANCED_BREP_SHAPE_REPRESENTATION('',(#237),#377);
#12=CYLINDRICAL_SURFACE('',#255,0.00125);
#13=CYLINDRICAL_SURFACE('',#256,0.00125);
#14=CIRCLE('',#246,0.00125);
#15=CIRCLE('',#250,0.00125);
#16=CIRCLE('',#254,0.00125);
#17=ELLIPSE('',#245,0.00126928326485718,0.00125);
#18=ORIENTED_EDGE('',*,*,#74,.T.);
#19=ORIENTED_EDGE('',*,*,#75,.T.);
#20=ORIENTED_EDGE('',*,*,#76,.F.);
#21=ORIENTED_EDGE('',*,*,#77,.F.);
#22=ORIENTED_EDGE('',*,*,#78,.F.);
#23=ORIENTED_EDGE('',*,*,#79,.T.);
#24=ORIENTED_EDGE('',*,*,#80,.F.);
#25=ORIENTED_EDGE('',*,*,#81,.F.);
#26=ORIENTED_EDGE('',*,*,#82,.F.);
#27=ORIENTED_EDGE('',*,*,#83,.T.);
#28=ORIENTED_EDGE('',*,*,#76,.T.);
#29=ORIENTED_EDGE('',*,*,#84,.F.);
#30=ORIENTED_EDGE('',*,*,#85,.F.);
#31=ORIENTED_EDGE('',*,*,#80,.T.);
#32=ORIENTED_EDGE('',*,*,#86,.F.);
#33=ORIENTED_EDGE('',*,*,#87,.F.);
#34=ORIENTED_EDGE('',*,*,#88,.T.);
#35=ORIENTED_EDGE('',*,*,#89,.T.);
#36=ORIENTED_EDGE('',*,*,#83,.F.);
#37=ORIENTED_EDGE('',*,*,#90,.F.);
#38=ORIENTED_EDGE('',*,*,#91,.T.);
#39=ORIENTED_EDGE('',*,*,#77,.T.);
#40=ORIENTED_EDGE('',*,*,#79,.F.);
#41=ORIENTED_EDGE('',*,*,#92,.F.);
#42=ORIENTED_EDGE('',*,*,#93,.T.);
#43=ORIENTED_EDGE('',*,*,#86,.T.);
#44=ORIENTED_EDGE('',*,*,#94,.F.);
#45=ORIENTED_EDGE('',*,*,#95,.F.);
#46=ORIENTED_EDGE('',*,*,#74,.F.);
#47=ORIENTED_EDGE('',*,*,#91,.F.);
#48=ORIENTED_EDGE('',*,*,#96,.T.);
#49=ORIENTED_EDGE('',*,*,#97,.T.);
#50=ORIENTED_EDGE('',*,*,#87,.T.);
#51=ORIENTED_EDGE('',*,*,#93,.F.);
#52=ORIENTED_EDGE('',*,*,#98,.T.);
#53=ORIENTED_EDGE('',*,*,#85,.T.);
#54=ORIENTED_EDGE('',*,*,#97,.F.);
#55=ORIENTED_EDGE('',*,*,#99,.F.);
#56=ORIENTED_EDGE('',*,*,#81,.T.);
#57=ORIENTED_EDGE('',*,*,#82,.T.);
#58=ORIENTED_EDGE('',*,*,#99,.T.);
#59=ORIENTED_EDGE('',*,*,#96,.F.);
#60=ORIENTED_EDGE('',*,*,#90,.T.);
#61=ORIENTED_EDGE('',*,*,#94,.T.);
#62=ORIENTED_EDGE('',*,*,#92,.T.);
#63=ORIENTED_EDGE('',*,*,#78,.T.);
#64=ORIENTED_EDGE('',*,*,#100,.F.);
#65=ORIENTED_EDGE('',*,*,#101,.T.);
#66=ORIENTED_EDGE('',*,*,#95,.T.);
#67=ORIENTED_EDGE('',*,*,#100,.T.);
#68=ORIENTED_EDGE('',*,*,#84,.T.);
#69=ORIENTED_EDGE('',*,*,#75,.F.);
#70=ORIENTED_EDGE('',*,*,#88,.F.);
#71=ORIENTED_EDGE('',*,*,#101,.F.);
#72=ORIENTED_EDGE('',*,*,#89,.F.);
#73=ORIENTED_EDGE('',*,*,#98,.F.);
#74=EDGE_CURVE('',#102,#103,#122,.T.);
#75=EDGE_CURVE('',#103,#104,#123,.T.);
#76=EDGE_CURVE('',#105,#104,#124,.T.);
#77=EDGE_CURVE('',#102,#105,#125,.T.);
#78=EDGE_CURVE('',#106,#107,#126,.T.);
#79=EDGE_CURVE('',#106,#108,#127,.T.);
#80=EDGE_CURVE('',#109,#108,#128,.T.);
#81=EDGE_CURVE('',#110,#109,#129,.T.);
#82=EDGE_CURVE('',#111,#110,#130,.T.);
#83=EDGE_CURVE('',#111,#105,#131,.T.);
#84=EDGE_CURVE('',#107,#104,#132,.T.);
#85=EDGE_CURVE('',#109,#112,#133,.T.);
#86=EDGE_CURVE('',#113,#108,#134,.T.);
#87=EDGE_CURVE('',#112,#113,#135,.T.);
#88=EDGE_CURVE('',#114,#114,#17,.F.);
#89=EDGE_CURVE('',#115,#115,#14,.F.);
#90=EDGE_CURVE('',#116,#111,#136,.T.);
#91=EDGE_CURVE('',#116,#102,#137,.T.);
#92=EDGE_CURVE('',#117,#106,#138,.T.);
#93=EDGE_CURVE('',#117,#113,#139,.T.);
#94=EDGE_CURVE('',#118,#117,#140,.T.);
#95=EDGE_CURVE('',#103,#118,#141,.T.);
#96=EDGE_CURVE('',#116,#119,#142,.T.);
#97=EDGE_CURVE('',#119,#112,#143,.T.);
#98=EDGE_CURVE('',#120,#120,#15,.T.);
#99=EDGE_CURVE('',#110,#119,#144,.T.);
#100=EDGE_CURVE('',#118,#107,#145,.T.);
#101=EDGE_CURVE('',#121,#121,#16,.T.);
#102=VERTEX_POINT('',#318);
#103=VERTEX_POINT('',#319);
#104=VERTEX_POINT('',#321);
#105=VERTEX_POINT('',#323);
#106=VERTEX_POINT('',#327);
#107=VERTEX_POINT('',#328);
#108=VERTEX_POINT('',#330);
#109=VERTEX_POINT('',#332);
#110=VERTEX_POINT('',#334);
#111=VERTEX_POINT('',#336);
#112=VERTEX_POINT('',#341);
#113=VERTEX_POINT('',#343);
#114=VERTEX_POINT('',#347);
#115=VERTEX_POINT('',#349);
#116=VERTEX_POINT('',#351);
#117=VERTEX_POINT('',#355);
#118=VERTEX_POINT('',#359);
#119=VERTEX_POINT('',#362);
#120=VERTEX_POINT('',#366);
#121=VERTEX_POINT('',#373);
#122=LINE('',#317,#146);
#123=LINE('',#320,#147);
#124=LINE('',#322,#148);
#125=LINE('',#324,#149);
#126=LINE('',#326,#150);
#127=LINE('',#329,#151);
#128=LINE('',#331,#152);
#129=LINE('',#333,#153);
#130=LINE('',#335,#154);
#131=LINE('',#337,#155);
#132=LINE('',#338,#156);
#133=LINE('',#340,#157);
#134=LINE('',#342,#158);
#135=LINE('',#344,#159);
#136=LINE('',#350,#160);
#137=LINE('',#352,#161);
#138=LINE('',#354,#162);
#139=LINE('',#356,#163);
#140=LINE('',#358,#164);
#141=LINE('',#360,#165);
#142=LINE('',#361,#166);
#143=LINE('',#363,#167);
#144=LINE('',#367,#168);
#145=LINE('',#370,#169);
#146=VECTOR('',#261,1.);
#147=VECTOR('',#262,1.);
#148=VECTOR('',#263,1.);
#149=VECTOR('',#264,1.);
#150=VECTOR('',#267,1.);
#151=VECTOR('',#268,1.);
#152=VECTOR('',#269,1.);
#153=VECTOR('',#270,1.);
#154=VECTOR('',#271,1.);
#155=VECTOR('',#272,1.);
#156=VECTOR('',#273,1.);
#157=VECTOR('',#276,1.);
#158=VECTOR('',#277,1.);
#159=VECTOR('',#278,1.);
#160=VECTOR('',#285,1.);
#161=VECTOR('',#286,1.);
#162=VECTOR('',#289,1.);
#163=VECTOR('',#290,1.);
#164=VECTOR('',#293,1.);
#165=VECTOR('',#294,1.);
#166=VECTOR('',#295,1.);
#167=VECTOR('',#296,1.);
#168=VECTOR('',#301,1.);
#169=VECTOR('',#306,1.);
#170=EDGE_LOOP('',(#18,#19,#20,#21));
#171=EDGE_LOOP('',(#22,#23,#24,#25,#26,#27,#28,#29));
#172=EDGE_LOOP('',(#30,#31,#32,#33));
#173=EDGE_LOOP('',(#34));
#174=EDGE_LOOP('',(#35));
#175=EDGE_LOOP('',(#36,#37,#38,#39));
#176=EDGE_LOOP('',(#40,#41,#42,#43));
#177=EDGE_LOOP('',(#44,#45,#46,#47,#48,#49,#50,#51));
#178=EDGE_LOOP('',(#52));
#179=EDGE_LOOP('',(#53,#54,#55,#56));
#180=EDGE_LOOP('',(#57,#58,#59,#60));
#181=EDGE_LOOP('',(#61,#62,#63,#64));
#182=EDGE_LOOP('',(#65));
#183=EDGE_LOOP('',(#66,#67,#68,#69));
#184=EDGE_LOOP('',(#70));
#185=EDGE_LOOP('',(#71));
#186=EDGE_LOOP('',(#72));
#187=EDGE_LOOP('',(#73));
#188=FACE_BOUND('',#170,.T.);
#189=FACE_BOUND('',#171,.T.);
#190=FACE_BOUND('',#172,.T.);
#191=FACE_BOUND('',#173,.T.);
#192=FACE_BOUND('',#174,.T.);
#193=FACE_BOUND('',#175,.T.);
#194=FACE_BOUND('',#176,.T.);
#195=FACE_BOUND('',#177,.T.);
#196=FACE_BOUND('',#178,.T.);
#197=FACE_BOUND('',#179,.T.);
#198=FACE_BOUND('',#180,.T.);
#199=FACE_BOUND('',#181,.T.);
#200=FACE_BOUND('',#182,.T.);
#201=FACE_BOUND('',#183,.T.);
#202=FACE_BOUND('',#184,.T.);
#203=FACE_BOUND('',#185,.T.);
#204=FACE_BOUND('',#186,.T.);
#205=FACE_BOUND('',#187,.T.);
#206=PLANE('',#241);
#207=PLANE('',#242);
#208=PLANE('',#243);
#209=PLANE('',#244);
#210=PLANE('',#247);
#211=PLANE('',#248);
#212=PLANE('',#249);
#213=PLANE('',#251);
#214=PLANE('',#252);
#215=PLANE('',#253);
#216=ADVANCED_FACE('',(#188),#206,.T.);
#217=ADVANCED_FACE('',(#189),#207,.F.);
#218=ADVANCED_FACE('',(#190),#208,.F.);
#219=ADVANCED_FACE('',(#191,#192,#193),#209,.T.);
#220=ADVANCED_FACE('',(#194),#210,.T.);
#221=ADVANCED_FACE('',(#195),#211,.T.);
#222=ADVANCED_FACE('',(#196,#197),#212,.F.);
#223=ADVANCED_FACE('',(#198),#213,.T.);
#224=ADVANCED_FACE('',(#199),#214,.F.);
#225=ADVANCED_FACE('',(#200,#201),#215,.F.);
#226=ADVANCED_FACE('',(#202,#203),#12,.F.);
#227=ADVANCED_FACE('',(#204,#205),#13,.F.);
#228=CLOSED_SHELL('',(#216,#217,#218,#219,#220,#221,#222,#223,#224,#225,
#226,#227));
#229=STYLED_ITEM('',(#230),#237);
#230=PRESENTATION_STYLE_ASSIGNMENT((#231));
#231=SURFACE_STYLE_USAGE(.BOTH.,#232);
#232=SURFACE_SIDE_STYLE('',(#233));
#233=SURFACE_STYLE_FILL_AREA(#234);
#234=FILL_AREA_STYLE('',(#235));
#235=FILL_AREA_STYLE_COLOUR('',#236);
#236=COLOUR_RGB('',0.615686274509804,0.811764705882353,0.929411764705882);
#237=MANIFOLD_SOLID_BREP('Part 1',#228);
#238=SHAPE_DEFINITION_REPRESENTATION(#382,#239);
#239=SHAPE_REPRESENTATION('Part 1',(#240),#377);
#240=AXIS2_PLACEMENT_3D('',#315,#257,#258);
#241=AXIS2_PLACEMENT_3D('',#316,#259,#260);
#242=AXIS2_PLACEMENT_3D('',#325,#265,#266);
#243=AXIS2_PLACEMENT_3D('',#339,#274,#275);
#244=AXIS2_PLACEMENT_3D('',#345,#279,#280);
#245=AXIS2_PLACEMENT_3D('',#346,#281,#282);
#246=AXIS2_PLACEMENT_3D('',#348,#283,#284);
#247=AXIS2_PLACEMENT_3D('',#353,#287,#288);
#248=AXIS2_PLACEMENT_3D('',#357,#291,#292);
#249=AXIS2_PLACEMENT_3D('',#364,#297,#298);
#250=AXIS2_PLACEMENT_3D('',#365,#299,#300);
#251=AXIS2_PLACEMENT_3D('',#368,#302,#303);
#252=AXIS2_PLACEMENT_3D('',#369,#304,#305);
#253=AXIS2_PLACEMENT_3D('',#371,#307,#308);
#254=AXIS2_PLACEMENT_3D('',#372,#309,#310);
#255=AXIS2_PLACEMENT_3D('',#374,#311,#312);
#256=AXIS2_PLACEMENT_3D('',#375,#313,#314);
#257=DIRECTION('',(0.,0.,1.));
#258=DIRECTION('',(1.,0.,0.));
#259=DIRECTION('',(-1.,0.,0.));
#260=DIRECTION('',(0.,0.,1.));
#261=DIRECTION('',(0.,0.,1.));
#262=DIRECTION('',(0.,1.,0.));
#263=DIRECTION('',(0.,0.,1.));
#264=DIRECTION('',(0.,1.,0.));
#265=DIRECTION('',(0.,-1.,0.));
#266=DIRECTION('',(1.,0.,0.));
#267=DIRECTION('',(0.17364817766693,0.,-0.984807753012208));
#268=DIRECTION('',(0.729537204140085,0.,-0.68394112888133));
#269=DIRECTION('',(0.,0.,1.));
#270=DIRECTION('',(-1.,0.,0.));
#271=DIRECTION('',(0.,0.,1.));
#272=DIRECTION('',(-1.,0.,0.));
#273=DIRECTION('',(-0.984807753012208,0.,-0.17364817766693));
#274=DIRECTION('',(-1.,0.,0.));
#275=DIRECTION('',(0.,0.,1.));
#276=DIRECTION('',(0.,-1.,-1.13826999736011E-16));
#277=DIRECTION('',(0.,1.,0.));
#278=DIRECTION('',(0.,0.,1.));
#279=DIRECTION('',(0.,0.,-1.));
#280=DIRECTION('',(-1.,0.,0.));
#281=DIRECTION('',(0.,0.,-1.));
#282=DIRECTION('',(1.,0.,0.));
#283=DIRECTION('',(0.,0.,-1.));
#284=DIRECTION('',(-1.,0.,0.));
#285=DIRECTION('',(0.,1.,0.));
#286=DIRECTION('',(-1.,0.,0.));
#287=DIRECTION('',(0.68394112888133,0.,0.729537204140085));
#288=DIRECTION('',(0.729537204140085,0.,-0.68394112888133));
#289=DIRECTION('',(0.,1.,0.));
#290=DIRECTION('',(0.729537204140085,0.,-0.68394112888133));
#291=DIRECTION('',(0.,-1.,0.));
#292=DIRECTION('',(1.,0.,0.));
#293=DIRECTION('',(-0.17364817766693,0.,0.984807753012208));
#294=DIRECTION('',(0.984807753012208,0.,0.17364817766693));
#295=DIRECTION('',(0.,0.,1.));
#296=DIRECTION('',(-1.,0.,0.));
#297=DIRECTION('',(0.,1.13826999736011E-16,-1.));
#298=DIRECTION('',(0.,1.,1.13826999736011E-16));
#299=DIRECTION('',(0.,1.13826999736011E-16,-1.));
#300=DIRECTION('',(0.,1.,1.13826999736011E-16));
#301=DIRECTION('',(0.,-1.,-1.13826999736011E-16));
#302=DIRECTION('',(1.,0.,0.));
#303=DIRECTION('',(0.,1.,0.));
#304=DIRECTION('',(0.984807753012208,0.,0.17364817766693));
#305=DIRECTION('',(0.17364817766693,0.,-0.984807753012208));
#306=DIRECTION('',(0.,1.,0.));
#307=DIRECTION('',(0.17364817766693,0.,-0.984807753012208));
#308=DIRECTION('',(-0.984807753012208,0.,-0.17364817766693));
#309=DIRECTION('',(0.17364817766693,0.,-0.984807753012208));
#310=DIRECTION('',(-0.984807753012208,0.,-0.17364817766693));
#311=DIRECTION('',(0.17364817766693,0.,-0.984807753012208));
#312=DIRECTION('',(-0.984807753012208,0.,-0.17364817766693));
#313=DIRECTION('',(0.,1.13826999736011E-16,-1.));
#314=DIRECTION('',(0.,1.,1.13826999736011E-16));
#315=CARTESIAN_POINT('',(0.,0.,0.));
#316=CARTESIAN_POINT('',(-0.0127,-0.01524,0.03175));
#317=CARTESIAN_POINT('',(-0.0127,-0.01524,0.03175));
#318=CARTESIAN_POINT('',(-0.0127,-0.01524,0.));
#319=CARTESIAN_POINT('',(-0.0127,-0.01524,0.00635));
#320=CARTESIAN_POINT('',(-0.0127,-0.03556,0.00635));
#321=CARTESIAN_POINT('',(-0.0127,0.,0.00635));
#322=CARTESIAN_POINT('',(-0.0127,0.,0.03175));
#323=CARTESIAN_POINT('',(-0.0127,0.,0.));
#324=CARTESIAN_POINT('',(-0.0127,-0.01524,0.));
#325=CARTESIAN_POINT('',(3.46944695195361E-18,0.,0.03175));
#326=CARTESIAN_POINT('',(-0.00781338720223451,0.,0.0357866416805213));
#327=CARTESIAN_POINT('',(-0.0127,0.,0.0635));
#328=CARTESIAN_POINT('',(-0.00292677440446901,0.,0.00807328336104267));
#329=CARTESIAN_POINT('',(6.93889390390723E-18,0.,0.05159375));
#330=CARTESIAN_POINT('',(0.0127,0.,0.0396875));
#331=CARTESIAN_POINT('',(0.0127,0.,0.01984375));
#332=CARTESIAN_POINT('',(0.0127,0.,0.00635));
#333=CARTESIAN_POINT('',(0.0381,0.,0.00635));
#334=CARTESIAN_POINT('',(0.0381,0.,0.00635));
#335=CARTESIAN_POINT('',(0.0381,0.,0.01984375));
#336=CARTESIAN_POINT('',(0.0381,0.,0.));
#337=CARTESIAN_POINT('',(0.,0.,0.));
#338=CARTESIAN_POINT('',(-0.00781338720223451,0.,0.00721164168052134));
#339=CARTESIAN_POINT('',(0.0127,-0.01524,0.01984375));
#340=CARTESIAN_POINT('',(0.0127,-0.00762,0.00635));
#341=CARTESIAN_POINT('',(0.0127,-0.01524,0.00635));
#342=CARTESIAN_POINT('',(0.0127,-0.01524,0.0396875));
#343=CARTESIAN_POINT('',(0.0127,-0.01524,0.0396875));
#344=CARTESIAN_POINT('',(0.0127,-0.01524,0.01984375));
#345=CARTESIAN_POINT('',(0.,-0.01524,0.));
#346=CARTESIAN_POINT('',(-0.00654178019875686,-0.00762,0.));
#347=CARTESIAN_POINT('',(-0.00527249693389968,-0.00762,0.));
#348=CARTESIAN_POINT('',(0.0254,-0.00762,0.));
#349=CARTESIAN_POINT('',(0.02415,-0.00762,0.));
#350=CARTESIAN_POINT('',(0.0381,-0.01524,0.));
#351=CARTESIAN_POINT('',(0.0381,-0.01524,0.));
#352=CARTESIAN_POINT('',(0.,-0.01524,0.));
#353=CARTESIAN_POINT('',(6.93889390390723E-18,-0.01524,0.05159375));
#354=CARTESIAN_POINT('',(-0.0127,-0.01524,0.0635));
#355=CARTESIAN_POINT('',(-0.0127,-0.01524,0.0635));
#356=CARTESIAN_POINT('',(6.93889390390723E-18,-0.01524,0.05159375));
#357=CARTESIAN_POINT('',(3.46944695195361E-18,-0.01524,0.03175));
#358=CARTESIAN_POINT('',(-0.00688747836669552,-0.01524,0.0305355517349057));
#359=CARTESIAN_POINT('',(-0.00292677440446901,-0.01524,0.00807328336104267));
#360=CARTESIAN_POINT('',(0.00396070396222652,-0.01524,0.00928773162613697));
#361=CARTESIAN_POINT('',(0.0381,-0.01524,0.01984375));
#362=CARTESIAN_POINT('',(0.0381,-0.01524,0.00635));
#363=CARTESIAN_POINT('',(0.0381,-0.01524,0.00635));
#364=CARTESIAN_POINT('',(0.0381,-0.00762,0.00635));
#365=CARTESIAN_POINT('',(0.0254,-0.00762,0.00635));
#366=CARTESIAN_POINT('',(0.0254,-0.00637,0.00635));
#367=CARTESIAN_POINT('',(0.0381,-0.00762,0.00635));
#368=CARTESIAN_POINT('',(0.0381,-0.00762,0.01984375));
#369=CARTESIAN_POINT('',(-0.00781338720223451,-0.03556,0.0357866416805213));
#370=CARTESIAN_POINT('',(-0.00292677440446901,-0.03556,0.00807328336104267));
#371=CARTESIAN_POINT('',(-0.00781338720223451,-0.03556,0.00721164168052134));
#372=CARTESIAN_POINT('',(-0.00781338720223451,-0.00762,0.00721164168052134));
#373=CARTESIAN_POINT('',(-0.00904439689349977,-0.00762,0.00699458145843768));
#374=CARTESIAN_POINT('',(-0.00781338720223451,-0.00762,0.00721164168052134));
#375=CARTESIAN_POINT('',(0.0254,-0.00762,0.00635));
#376=MECHANICAL_DESIGN_GEOMETRIC_PRESENTATION_REPRESENTATION('',(#229),
#377);
#377=(
GEOMETRIC_REPRESENTATION_CONTEXT(3)
GLOBAL_UNCERTAINTY_ASSIGNED_CONTEXT((#378))
GLOBAL_UNIT_ASSIGNED_CONTEXT((#381,#380,#379))
REPRESENTATION_CONTEXT('Part 1','TOP_LEVEL_ASSEMBLY_PART')
);
#378=UNCERTAINTY_MEASURE_WITH_UNIT(LENGTH_MEASURE(1.E-8),#381,
'DISTANCE_ACCURACY_VALUE','Maximum Tolerance applied to model');
#379=(
NAMED_UNIT(*)
SI_UNIT($,.STERADIAN.)
SOLID_ANGLE_UNIT()
);
#380=(
NAMED_UNIT(*)
PLANE_ANGLE_UNIT()
SI_UNIT($,.RADIAN.)
);
#381=(
LENGTH_UNIT()
NAMED_UNIT(*)
SI_UNIT($,.METRE.)
);
#382=PRODUCT_DEFINITION_SHAPE('','',#383);
#383=PRODUCT_DEFINITION('','',#385,#384);
#384=PRODUCT_DEFINITION_CONTEXT('',#391,'design');
#385=PRODUCT_DEFINITION_FORMATION_WITH_SPECIFIED_SOURCE('','',#387,
 .NOT_KNOWN.);
#386=PRODUCT_RELATED_PRODUCT_CATEGORY('','',(#387));
#387=PRODUCT('Part 1','Part 1','Part 1',(#389));
#388=PRODUCT_CATEGORY('','');
#389=PRODUCT_CONTEXT('',#391,'mechanical');
#390=APPLICATION_PROTOCOL_DEFINITION('international standard',
'ap242_managed_model_based_3d_engineering',2020,#391);
#391=APPLICATION_CONTEXT('managed model based 3d engineering');
ENDSEC;
END-ISO-10303-21;
